<?xml version="1.0" standalone="no"?>
<!DOCTYPE svg PUBLIC "-//W3C//DTD SVG 20010904//EN"
 "http://www.w3.org/TR/2001/REC-SVG-20010904/DTD/svg10.dtd">
<svg version="1.0" xmlns="http://www.w3.org/2000/svg"
 width="450.000000pt" height="450.000000pt" viewBox="0 0 450.000000 450.000000"
 preserveAspectRatio="xMidYMid meet">
<metadata>
Created by potrace 1.11, written by Peter Selinger 2001-2013
</metadata>
<g transform="translate(0.000000,450.000000) scale(0.100000,-0.100000)"
fill="#000000" stroke="none">
<path d="M3235 4408 c-28 -58 -58 -102 -100 -144 -75 -75 -124 -92 -283 -99
-183 -7 -217 -20 -321 -119 l-74 -71 57 69 c31 39 56 73 56 77 0 13 -94 67
-145 83 -183 59 -398 53 -578 -14 -30 -11 -65 -29 -77 -40 l-23 -20 41 -49
c55 -64 54 -76 0 -19 -82 85 -100 92 -273 103 -106 7 -145 18 -201 56 -56 38
-96 91 -141 185 -45 94 -47 90 -41 -106 4 -116 9 -145 32 -206 26 -69 29 -71
81 -93 65 -27 172 -101 240 -166 28 -26 43 -43 35 -37 -30 19 -340 192 -345
192 -4 0 -5 -16 -3 -36 3 -35 7 -38 218 -166 208 -127 336 -188 497 -239 94
-29 134 -79 178 -221 18 -56 18 -56 41 -41 33 21 103 21 119 0 13 -19 25 -22
25 -8 0 5 14 46 31 91 36 94 72 140 126 162 64 27 206 69 211 63 3 -3 6 -31 8
-63 6 -157 -122 -239 -271 -173 -46 20 -50 21 -62 5 -18 -24 -10 -31 63 -54
117 -36 195 -22 259 44 51 53 65 99 60 197 -4 77 -4 77 23 84 15 3 54 20 87
36 53 27 57 27 32 6 l-27 -23 17 -35 c29 -55 24 -199 -8 -267 l-26 -53 -302
-184 -301 -183 -138 85 c-75 46 -212 129 -304 184 l-166 101 -27 61 c-42 91
-41 181 1 291 4 9 -5 20 -24 30 l-30 15 -12 -47 c-7 -26 -15 -54 -17 -62 -12
-43 -11 -200 1 -245 14 -54 59 -150 75 -160 12 -7 5 -143 -9 -193 -5 -19 -21
-49 -35 -68 -30 -40 -30 -40 54 -14 68 22 191 35 191 20 0 -4 -8 -7 -17 -6 -9
2 -37 -1 -62 -6 -25 -5 -58 -11 -73 -13 -176 -32 -325 -251 -366 -540 -11 -80
-7 -355 7 -419 43 -197 142 -408 282 -597 51 -68 197 -249 219 -269 3 -3 34
-39 70 -80 36 -41 79 -90 95 -108 42 -47 47 -59 52 -112 l4 -46 -60 -28 c-119
-55 -171 -110 -171 -181 0 -36 32 -94 72 -131 66 -60 68 -60 41 7 -20 49 -23
71 -18 108 9 63 19 78 65 101 53 27 71 25 30 -2 -76 -52 -93 -116 -51 -200 31
-61 51 -70 44 -19 -6 47 19 139 47 169 15 16 32 22 62 22 l42 0 -51 -25 c-57
-29 -61 -35 -69 -108 -4 -42 -1 -58 16 -86 12 -18 23 -32 24 -30 2 2 6 22 9
44 11 98 42 131 146 155 47 11 56 11 65 -2 6 -8 30 -37 52 -64 23 -27 77 -92
120 -144 102 -125 113 -134 181 -160 67 -25 183 -51 195 -44 4 3 -30 79 -75
170 -46 90 -82 164 -80 164 6 0 133 -200 133 -209 0 -17 47 -61 80 -75 31 -12
124 -38 222 -60 27 -6 26 -4 -30 91 -98 167 -113 193 -110 193 2 0 37 -46 78
-102 88 -120 123 -156 170 -176 47 -20 140 -41 140 -32 0 4 -10 29 -21 55 -32
71 -54 153 -119 430 -17 72 -35 143 -42 158 -10 27 -14 28 -52 21 -40 -7 -64
-8 -119 -5 -53 2 -117 102 -117 182 l0 39 -57 0 c-31 0 -80 8 -109 17 -67 21
-110 75 -125 160 -13 72 -28 89 -90 102 -109 24 -171 86 -204 204 -13 48 -26
91 -29 96 -4 5 -24 12 -46 16 -61 10 -153 103 -174 177 -9 31 -15 68 -12 82 4
24 2 26 -22 20 -15 -4 -29 -8 -30 -10 -2 -1 -17 2 -33 8 -89 31 -127 218 -77
378 16 54 65 152 88 180 l21 25 -19 -40 c-95 -195 -81 -357 42 -477 16 -16 30
-27 31 -26 3 4 14 107 15 137 0 13 2 22 4 20 7 -7 14 -51 21 -136 3 -43 9 -91
12 -108 8 -47 49 -111 96 -148 65 -52 67 -53 62 -10 -3 21 -7 58 -9 83 -3 25
-7 68 -10 95 -4 35 6 10 35 -85 93 -312 116 -364 181 -406 37 -24 97 -49 102
-43 2 2 -4 42 -14 89 -20 94 -30 191 -20 185 4 -3 10 -22 13 -42 10 -60 82
-315 98 -345 8 -15 35 -49 61 -76 37 -39 59 -53 106 -66 75 -21 73 -21 67 11
-2 16 -7 55 -10 88 -5 55 -2 50 30 -62 37 -127 90 -233 130 -259 13 -8 44 -15
71 -16 91 -2 87 -5 58 60 -41 90 -40 91 17 16 59 -77 107 -122 156 -148 52
-26 54 -19 14 47 -83 136 -163 352 -207 562 -10 51 -25 122 -29 145 -3 14 -7
36 -10 50 -16 81 -24 192 -24 345 -1 140 4 201 24 310 18 91 24 145 29 231 7
138 -38 301 -101 366 -74 76 -219 132 -358 138 l-40 2 32 8 c80 19 200 -7 300
-66 23 -13 44 -24 48 -24 9 0 -3 107 -17 150 -6 19 -28 67 -50 107 -31 57 -37
76 -29 91 20 37 69 181 77 224 11 64 6 163 -12 243 -15 66 -12 75 41 103 28
15 114 62 191 105 136 75 141 80 139 108 -1 17 -4 32 -6 34 -5 4 -44 -15 -236
-116 -73 -38 -133 -66 -133 -62 0 4 37 36 83 69 78 59 158 105 238 137 31 13
39 24 64 88 26 68 29 87 31 232 2 86 3 157 1 157 -1 0 -20 -37 -42 -82z"/>
<path d="M1656 3598 c-28 -106 22 -241 107 -284 64 -33 178 -28 259 13 24 12
26 16 17 37 l-11 23 -42 -23 c-152 -85 -302 17 -281 192 3 33 2 54 -4 54 -5 0
-16 3 -24 6 -9 3 -17 -3 -21 -18z"/>
<path d="M2113 3263 c-13 -20 -13 -32 2 -105 21 -107 44 -188 54 -188 10 0 36
86 56 183 16 83 12 107 -24 127 -30 16 -72 8 -88 -17z"/>
<path d="M1265 785 c146 -68 274 -141 322 -183 15 -13 44 -36 63 -51 19 -14
38 -30 42 -36 4 -5 7 6 6 25 -2 59 38 113 103 140 26 11 28 15 14 22 -21 13
-229 86 -257 92 -118 24 -124 25 -248 41 -19 2 -69 7 -110 10 l-75 6 140 -66z"/>
<path d="M2096 505 c-62 -22 -95 -62 -103 -123 -7 -63 -2 -70 80 -113 117 -60
202 -121 271 -192 41 -43 66 -63 62 -50 -4 12 -9 32 -11 45 -22 114 -69 233
-121 305 -31 43 -125 143 -134 143 -3 -1 -23 -7 -44 -15z"/>
</g>
</svg>
